<svg width="34" height="34" viewBox="0 0 34 34" fill="none" xmlns="http://www.w3.org/2000/svg">
<rect width="34" height="34" rx="17" fill="#E4ECE9"/>
<path d="M22.625 13.0625H9.6875V11.375C9.6875 11.2258 9.62824 11.0827 9.52275 10.9773C9.41726 10.8718 9.27418 10.8125 9.125 10.8125C8.97582 10.8125 8.83274 10.8718 8.72725 10.9773C8.62176 11.0827 8.5625 11.2258 8.5625 11.375V22.625C8.5625 22.7742 8.62176 22.9173 8.72725 23.0227C8.83274 23.1282 8.97582 23.1875 9.125 23.1875C9.27418 23.1875 9.41726 23.1282 9.52275 23.0227C9.62824 22.9173 9.6875 22.7742 9.6875 22.625V20.375H24.3125V22.625C24.3125 22.7742 24.3718 22.9173 24.4773 23.0227C24.5827 23.1282 24.7258 23.1875 24.875 23.1875C25.0242 23.1875 25.1673 23.1282 25.2727 23.0227C25.3782 22.9173 25.4375 22.7742 25.4375 22.625V15.875C25.4375 15.1291 25.1412 14.4137 24.6137 13.8863C24.0863 13.3588 23.3709 13.0625 22.625 13.0625ZM9.6875 14.1875H14.75V19.25H9.6875V14.1875Z" fill="#1F8459"/>
</svg>
