<svg width="20" height="20" viewBox="0 0 20 20" fill="none" xmlns="http://www.w3.org/2000/svg">
<path d="M16.6922 7.94217L10.4422 14.1922C10.3841 14.2503 10.3152 14.2964 10.2393 14.3278C10.1634 14.3593 10.0821 14.3755 9.99998 14.3755C9.91785 14.3755 9.83652 14.3593 9.76064 14.3278C9.68477 14.2964 9.61584 14.2503 9.55779 14.1922L3.30779 7.94217C3.19052 7.82489 3.12463 7.66583 3.12463 7.49998C3.12463 7.33413 3.19052 7.17507 3.30779 7.05779C3.42507 6.94052 3.58413 6.87463 3.74998 6.87463C3.91583 6.87463 4.07489 6.94052 4.19217 7.05779L9.99998 12.8664L15.8078 7.05779C15.8659 6.99972 15.9348 6.95366 16.0107 6.92224C16.0865 6.89081 16.1679 6.87463 16.25 6.87463C16.3321 6.87463 16.4134 6.89081 16.4893 6.92224C16.5652 6.95366 16.6341 6.99972 16.6922 7.05779C16.7502 7.11586 16.7963 7.1848 16.8277 7.26067C16.8592 7.33654 16.8753 7.41786 16.8753 7.49998C16.8753 7.5821 16.8592 7.66342 16.8277 7.73929C16.7963 7.81516 16.7502 7.8841 16.6922 7.94217Z" fill="#CDD5D2"/>
</svg>
