<svg width="34" height="34" viewBox="0 0 34 34" fill="none" xmlns="http://www.w3.org/2000/svg">
<rect width="34" height="34" rx="17" fill="#E4ECE9"/>
<path d="M23.1875 10.8125V23.75C23.1875 23.8992 23.1282 24.0422 23.0227 24.1477C22.9173 24.2532 22.7742 24.3125 22.625 24.3125C22.4758 24.3125 22.3327 24.2532 22.2273 24.1477C22.1218 24.0422 22.0625 23.8992 22.0625 23.75V20.375H18.6875C18.5383 20.375 18.3952 20.3157 18.2898 20.2102C18.1843 20.1047 18.125 19.9617 18.125 19.8125C18.1511 18.4651 18.3213 17.1243 18.6327 15.8131C19.3203 12.9661 20.6239 11.0579 22.4035 10.2957C22.4891 10.259 22.5823 10.2442 22.675 10.2525C22.7677 10.2607 22.8569 10.2919 22.9346 10.3431C23.0123 10.3943 23.076 10.464 23.1202 10.5459C23.1643 10.6278 23.1875 10.7194 23.1875 10.8125ZM16.4298 10.7204C16.4187 10.6465 16.3931 10.5756 16.3544 10.5117C16.3157 10.4479 16.2647 10.3924 16.2043 10.3484C16.1439 10.3045 16.0753 10.273 16.0027 10.2559C15.93 10.2387 15.8546 10.2362 15.7809 10.2485C15.7073 10.2608 15.6368 10.2876 15.5736 10.3274C15.5104 10.3672 15.4558 10.4192 15.4129 10.4803C15.37 10.5415 15.3398 10.6105 15.3238 10.6835C15.3079 10.7564 15.3067 10.8318 15.3202 10.9053L15.8673 14.1875H14.1875V10.8125C14.1875 10.6633 14.1282 10.5202 14.0227 10.4147C13.9173 10.3092 13.7742 10.25 13.625 10.25C13.4758 10.25 13.3327 10.3092 13.2273 10.4147C13.1218 10.5202 13.0625 10.6633 13.0625 10.8125V14.1875H11.3827L11.9298 10.9053C11.9433 10.8318 11.9421 10.7564 11.9262 10.6835C11.9102 10.6105 11.88 10.5415 11.8371 10.4803C11.7942 10.4192 11.7396 10.3672 11.6764 10.3274C11.6132 10.2876 11.5427 10.2608 11.4691 10.2485C11.3954 10.2362 11.32 10.2387 11.2473 10.2559C11.1747 10.273 11.1061 10.3045 11.0457 10.3484C10.9853 10.3924 10.9343 10.4479 10.8956 10.5117C10.8569 10.5756 10.8313 10.6465 10.8202 10.7204L10.2577 14.0954C10.2527 14.1258 10.2501 14.1566 10.25 14.1875C10.2511 14.9847 10.534 15.7558 11.0487 16.3647C11.5633 16.9735 12.2766 17.3808 13.0625 17.5147V23.75C13.0625 23.8992 13.1218 24.0422 13.2273 24.1477C13.3327 24.2532 13.4758 24.3125 13.625 24.3125C13.7742 24.3125 13.9173 24.2532 14.0227 24.1477C14.1282 24.0422 14.1875 23.8992 14.1875 23.75V17.5147C14.9734 17.3808 15.6867 16.9735 16.2013 16.3647C16.716 15.7558 16.9989 14.9847 17 14.1875C16.9999 14.1566 16.9973 14.1258 16.9923 14.0954L16.4298 10.7204Z" fill="#1F8459"/>
</svg>
