<svg width="102" height="32" viewBox="0 0 102 32" fill="none" xmlns="http://www.w3.org/2000/svg">
<path fill-rule="evenodd" clip-rule="evenodd" d="M16.8745 4.68165C17.5027 4.0535 18.5211 4.0535 19.1492 4.68165L25.0313 10.5639L19.1225 16.2043C18.4799 16.8176 17.4618 16.794 16.8484 16.1514C16.235 15.5088 16.2587 14.4907 16.9013 13.8773L18.7155 12.1456H14.795C11.6562 12.1456 9.11177 14.69 9.11177 17.8288C9.11177 20.9675 11.6562 23.5119 14.795 23.5119H22.73C23.6182 23.5119 24.3386 24.232 24.3386 25.1205C24.3386 26.0087 23.6182 26.7288 22.73 26.7288H14.795C9.87958 26.7288 5.8949 22.7442 5.8949 17.8288C5.8949 12.9134 9.87958 8.92866 14.795 8.92866H18.8469L16.8745 6.95635C16.2464 6.32821 16.2464 5.3098 16.8745 4.68165Z" fill="#1F8459"/>
<path d="M37.2026 14.6548C37.5358 14.1206 37.9678 13.7018 38.4985 13.3983C39.0416 13.0948 39.6587 12.9431 40.3499 12.9431V15.6199H39.6649C38.8503 15.6199 38.2332 15.808 37.8135 16.1843C37.4062 16.5607 37.2026 17.2162 37.2026 18.151V23.1767H34.6107V13.0887H37.2026V14.6548Z" fill="#1F8459"/>
<path d="M51.6302 17.9142C51.6302 18.2784 51.6055 18.6062 51.5562 18.8975H44.0581C44.1198 19.6259 44.379 20.1965 44.8357 20.6092C45.2924 21.022 45.854 21.2283 46.5204 21.2283C47.4832 21.2283 48.1682 20.8217 48.5755 20.0083H51.371C51.0748 20.9795 50.5071 21.7807 49.6678 22.412C48.8285 23.0311 47.7979 23.3406 46.576 23.3406C45.5886 23.3406 44.6999 23.1282 43.91 22.7033C43.1324 22.2663 42.5215 21.6532 42.0772 20.8642C41.6452 20.0751 41.4292 19.1646 41.4292 18.1327C41.4292 17.0887 41.6452 16.1722 42.0772 15.3831C42.5091 14.5941 43.1139 13.9871 43.8915 13.5622C44.6691 13.1373 45.5639 12.9249 46.576 12.9249C47.551 12.9249 48.4212 13.1312 49.1864 13.544C49.964 13.9567 50.5626 14.5455 50.9822 15.3103C51.4142 16.0629 51.6302 16.9309 51.6302 17.9142ZM48.9457 17.1859C48.9334 16.5303 48.6927 16.0083 48.2237 15.6199C47.7547 15.2192 47.1808 15.0189 46.5019 15.0189C45.8601 15.0189 45.3171 15.2132 44.8727 15.6016C44.4407 15.978 44.1754 16.506 44.0766 17.1859H48.9457Z" fill="#1F8459"/>
<path d="M58.2246 15.1828H56.4287V23.1767H53.7998V15.1828H52.6334V13.0887H53.7998V12.5789C53.7998 11.3406 54.1577 10.4302 54.8736 9.84748C55.5894 9.26478 56.6694 8.99164 58.1135 9.02805V11.1768C57.484 11.1646 57.0459 11.2678 56.799 11.4863C56.5522 11.7048 56.4287 12.0994 56.4287 12.6699V13.0887H58.2246V15.1828Z" fill="#1F8459"/>
<path d="M69.5869 13.0887V23.1767H66.9765V21.9021C66.6432 22.3391 66.2051 22.6851 65.662 22.94C65.1313 23.1828 64.5512 23.3042 63.9217 23.3042C63.1194 23.3042 62.4098 23.1403 61.7926 22.8126C61.1755 22.4726 60.688 21.981 60.3301 21.3376C59.9845 20.6821 59.8117 19.9051 59.8117 19.0068V13.0887H62.4036V18.6426C62.4036 19.4438 62.6072 20.0629 63.0145 20.5C63.4218 20.9249 63.9772 21.1373 64.6808 21.1373C65.3966 21.1373 65.9582 20.9249 66.3655 20.5C66.7728 20.0629 66.9765 19.4438 66.9765 18.6426V13.0887H69.5869Z" fill="#1F8459"/>
<path d="M77.8279 12.9431C79.0498 12.9431 80.0372 13.3255 80.7901 14.0903C81.543 14.8429 81.9195 15.8991 81.9195 17.2587V23.1767H79.3275V17.6047C79.3275 16.8035 79.1239 16.1904 78.7166 15.7655C78.3093 15.3285 77.7539 15.11 77.0504 15.11C76.3345 15.11 75.7667 15.3285 75.3471 15.7655C74.9398 16.1904 74.7361 16.8035 74.7361 17.6047V23.1767H72.1442V13.0887H74.7361V14.3452C75.0817 13.9082 75.5199 13.5683 76.0506 13.3255C76.5937 13.0705 77.1861 12.9431 77.8279 12.9431Z" fill="#1F8459"/>
<path d="M83.7177 18.0963C83.7177 17.0766 83.9214 16.1722 84.3287 15.3831C84.7483 14.5941 85.3161 13.9871 86.0319 13.5622C86.7478 13.1373 87.5439 12.9249 88.4202 12.9249C89.0867 12.9249 89.7223 13.0705 90.3271 13.3619C90.9319 13.6411 91.4133 14.0174 91.7712 14.4909V9.7018H94.4001V23.1767H91.7712V21.6836C91.4503 22.1813 90.9998 22.5819 90.4197 22.8854C89.8396 23.1889 89.1669 23.3406 88.4017 23.3406C87.5377 23.3406 86.7478 23.1221 86.0319 22.6851C85.3161 22.2481 84.7483 21.635 84.3287 20.8459C83.9214 20.0447 83.7177 19.1282 83.7177 18.0963ZM91.7897 18.1327C91.7897 17.5136 91.6663 16.9856 91.4194 16.5485C91.1726 16.0994 90.8393 15.7595 90.4197 15.5288C90 15.286 89.5495 15.1646 89.0682 15.1646C88.5868 15.1646 88.1425 15.2799 87.7352 15.5106C87.3279 15.7412 86.9947 16.0812 86.7355 16.5303C86.4886 16.9673 86.3652 17.4893 86.3652 18.0963C86.3652 18.7033 86.4886 19.2374 86.7355 19.6988C86.9947 20.1479 87.3279 20.4939 87.7352 20.7367C88.1549 20.9795 88.5992 21.1009 89.0682 21.1009C89.5495 21.1009 90 20.9855 90.4197 20.7549C90.8393 20.5121 91.1726 20.1722 91.4194 19.7352C91.6663 19.286 91.7897 18.7519 91.7897 18.1327Z" fill="#1F8459"/>
</svg>
