<svg width="34" height="34" viewBox="0 0 34 34" fill="none" xmlns="http://www.w3.org/2000/svg">
<rect width="34" height="34" rx="17" fill="#E4ECE9"/>
<path d="M23.1875 10.8125H10.8125C10.5141 10.8125 10.228 10.931 10.017 11.142C9.80603 11.353 9.6875 11.6391 9.6875 11.9375V22.625C9.68755 22.7209 9.71211 22.8151 9.75883 22.8989C9.80556 22.9826 9.87291 23.0529 9.95448 23.1033C10.0361 23.1537 10.1292 23.1824 10.2249 23.1866C10.3207 23.1909 10.416 23.1706 10.5017 23.1277L12.5 22.1286L14.4983 23.1277C14.5764 23.1668 14.6626 23.1872 14.75 23.1872C14.8374 23.1872 14.9236 23.1668 15.0017 23.1277L17 22.1286L18.9983 23.1277C19.0764 23.1668 19.1626 23.1872 19.25 23.1872C19.3374 23.1872 19.4236 23.1668 19.5017 23.1277L21.5 22.1286L23.4983 23.1277C23.584 23.1706 23.6793 23.1909 23.7751 23.1866C23.8708 23.1824 23.9639 23.1537 24.0455 23.1033C24.1271 23.0529 24.1944 22.9826 24.2412 22.8989C24.2879 22.8151 24.3124 22.7209 24.3125 22.625V11.9375C24.3125 11.6391 24.194 11.353 23.983 11.142C23.772 10.931 23.4859 10.8125 23.1875 10.8125ZM20.375 18.125H13.625C13.4758 18.125 13.3327 18.0657 13.2273 17.9602C13.1218 17.8548 13.0625 17.7117 13.0625 17.5625C13.0625 17.4133 13.1218 17.2702 13.2273 17.1648C13.3327 17.0593 13.4758 17 13.625 17H20.375C20.5242 17 20.6673 17.0593 20.7727 17.1648C20.8782 17.2702 20.9375 17.4133 20.9375 17.5625C20.9375 17.7117 20.8782 17.8548 20.7727 17.9602C20.6673 18.0657 20.5242 18.125 20.375 18.125ZM20.375 15.875H13.625C13.4758 15.875 13.3327 15.8157 13.2273 15.7102C13.1218 15.6048 13.0625 15.4617 13.0625 15.3125C13.0625 15.1633 13.1218 15.0202 13.2273 14.9148C13.3327 14.8093 13.4758 14.75 13.625 14.75H20.375C20.5242 14.75 20.6673 14.8093 20.7727 14.9148C20.8782 15.0202 20.9375 15.1633 20.9375 15.3125C20.9375 15.4617 20.8782 15.6048 20.7727 15.7102C20.6673 15.8157 20.5242 15.875 20.375 15.875Z" fill="#1F8459"/>
</svg>
