<svg width="34" height="34" viewBox="0 0 34 34" fill="none" xmlns="http://www.w3.org/2000/svg">
<rect width="34" height="34" rx="17" fill="#E4ECE9"/>
<path d="M24.3125 14.75C24.3133 15.5919 24.1041 16.4208 23.7039 17.1615C23.3037 17.9022 22.7251 18.5315 22.0204 18.9922C21.3158 19.453 20.5073 19.7307 19.6682 19.8002C18.8292 19.8698 17.986 19.729 17.2151 19.3906L13.5546 23.6248C13.5462 23.6347 13.5364 23.6452 13.5272 23.6544C13.1052 24.0764 12.5329 24.3134 11.936 24.3134C11.3392 24.3134 10.7669 24.0764 10.3449 23.6544C9.92287 23.2324 9.68579 22.66 9.68579 22.0632C9.68579 21.4664 9.92287 20.894 10.3449 20.472C10.3547 20.4629 10.3646 20.453 10.3751 20.4446L14.6093 16.7848C14.23 15.917 14.1014 14.9603 14.2382 14.0231C14.375 13.086 14.7717 12.2059 15.3832 11.4828C15.9948 10.7596 16.7968 10.2223 17.6983 9.93185C18.5997 9.64137 19.5645 9.60933 20.4832 9.83936C20.5779 9.86309 20.6648 9.91107 20.7354 9.97858C20.8059 10.0461 20.8577 10.1308 20.8856 10.2244C20.9134 10.3179 20.9165 10.4172 20.8944 10.5123C20.8723 10.6074 20.8258 10.6951 20.7596 10.7668L18.125 13.625L18.5229 15.4777L20.375 15.875L23.2332 13.2369C23.3049 13.1706 23.3926 13.1241 23.4877 13.102C23.5828 13.0799 23.682 13.083 23.7756 13.1109C23.8691 13.1387 23.9539 13.1905 24.0214 13.261C24.0889 13.3316 24.1368 13.4185 24.1606 13.5132C24.2615 13.9177 24.3125 14.3331 24.3125 14.75Z" fill="#1F8459"/>
</svg>
