<svg width="34" height="34" viewBox="0 0 34 34" fill="none" xmlns="http://www.w3.org/2000/svg">
<rect width="34" height="34" rx="17" fill="#E4ECE9"/>
<path d="M14.75 10.25C14.75 10.1008 14.8093 9.95774 14.9148 9.85225C15.0202 9.74676 15.1633 9.6875 15.3125 9.6875H18.6875C18.8367 9.6875 18.9798 9.74676 19.0852 9.85225C19.1907 9.95774 19.25 10.1008 19.25 10.25C19.25 10.3992 19.1907 10.5423 19.0852 10.6477C18.9798 10.7532 18.8367 10.8125 18.6875 10.8125H15.3125C15.1633 10.8125 15.0202 10.7532 14.9148 10.6477C14.8093 10.5423 14.75 10.3992 14.75 10.25ZM25.4375 16.4375C25.4375 16.5867 25.3782 16.7298 25.2727 16.8352C25.1673 16.9407 25.0242 17 24.875 17H24.3125V22.625C24.3125 22.9234 24.194 23.2095 23.983 23.4205C23.772 23.6315 23.4859 23.75 23.1875 23.75H21.5C21.2016 23.75 20.9155 23.6315 20.7045 23.4205C20.4935 23.2095 20.375 22.9234 20.375 22.625V21.5H13.625V22.625C13.625 22.9234 13.5065 23.2095 13.2955 23.4205C13.0845 23.6315 12.7984 23.75 12.5 23.75H10.8125C10.5141 23.75 10.228 23.6315 10.017 23.4205C9.80603 23.2095 9.6875 22.9234 9.6875 22.625V17H9.125C8.97582 17 8.83274 16.9407 8.72725 16.8352C8.62176 16.7298 8.5625 16.5867 8.5625 16.4375C8.5625 16.2883 8.62176 16.1452 8.72725 16.0398C8.83274 15.9343 8.97582 15.875 9.125 15.875H9.92375L11.8496 12.5042C11.948 12.3321 12.0902 12.189 12.2617 12.0895C12.4332 11.9899 12.628 11.9375 12.8263 11.9375H21.1737C21.372 11.9375 21.5668 11.9899 21.7383 12.0895C21.9098 12.189 22.052 12.3321 22.1504 12.5042L24.0763 15.875H24.875C25.0242 15.875 25.1673 15.9343 25.2727 16.0398C25.3782 16.1452 25.4375 16.2883 25.4375 16.4375ZM14.1875 18.6875C14.1875 18.5383 14.1282 18.3952 14.0227 18.2898C13.9173 18.1843 13.7742 18.125 13.625 18.125H12.5C12.3508 18.125 12.2077 18.1843 12.1023 18.2898C11.9968 18.3952 11.9375 18.5383 11.9375 18.6875C11.9375 18.8367 11.9968 18.9798 12.1023 19.0852C12.2077 19.1907 12.3508 19.25 12.5 19.25H13.625C13.7742 19.25 13.9173 19.1907 14.0227 19.0852C14.1282 18.9798 14.1875 18.8367 14.1875 18.6875ZM22.0625 18.6875C22.0625 18.5383 22.0032 18.3952 21.8977 18.2898C21.7923 18.1843 21.6492 18.125 21.5 18.125H20.375C20.2258 18.125 20.0827 18.1843 19.9773 18.2898C19.8718 18.3952 19.8125 18.5383 19.8125 18.6875C19.8125 18.8367 19.8718 18.9798 19.9773 19.0852C20.0827 19.1907 20.2258 19.25 20.375 19.25H21.5C21.6492 19.25 21.7923 19.1907 21.8977 19.0852C22.0032 18.9798 22.0625 18.8367 22.0625 18.6875Z" fill="#1F8459"/>
</svg>
